<?xml version="1.0" encoding="utf-8"?> <!-- Generator: IcoMoon.io --> <!DOCTYPE svg PUBLIC "-//W3C//DTD SVG 1.1//EN" "http://www.w3.org/Graphics/SVG/1.1/DTD/svg11.dtd"> <svg width="512" height="512" viewBox="0 0 512 512" xmlns="http://www.w3.org/2000/svg" xmlns:xlink="http://www.w3.org/1999/xlink" fill="#000000"><path d="M 256.00,0.00C 114.615,0.00,0.00,114.615,0.00,256.00s 114.615,256.00, 256.00,256.00s 256.00-114.615, 256.00-256.00S 397.385,0.00, 256.00,0.00z M 392.897,343.116 c 6.844,6.844, 6.844,18.044,0.00,24.89l-24.891,24.891c-6.846,6.844-18.046,6.844-24.89,0.00L 256.00,305.78l-87.115,87.116 c-6.845,6.844-18.046,6.844-24.89,0.00l-24.891-24.891c-6.845-6.846-6.845-18.046,0.00-24.89L 206.22,256.00l-87.116-87.115 c-6.845-6.845-6.845-18.046,0.00-24.89l 24.891-24.891c 6.844-6.845, 18.045-6.845, 24.89,0.00L 256.00,206.22l 87.116-87.116 c 6.844-6.845, 18.044-6.845, 24.89,0.00l 24.891,24.891c 6.844,6.844, 6.844,18.045,0.00,24.89L 305.781,256.00L 392.897,343.116z" ></path></svg>