<?xml version="1.0" encoding="utf-8"?> <!-- Generator: IcoMoon.io --> <!DOCTYPE svg PUBLIC "-//W3C//DTD SVG 1.1//EN" "http://www.w3.org/Graphics/SVG/1.1/DTD/svg11.dtd"> <svg width="512" height="512" viewBox="0 0 512 512" xmlns="http://www.w3.org/2000/svg" xmlns:xlink="http://www.w3.org/1999/xlink" fill="#000000"><path d="M 256.00,0.00C 114.615,0.00,0.00,114.615,0.00,256.00s 114.615,256.00, 256.00,256.00s 256.00-114.615, 256.00-256.00S 397.385,0.00, 256.00,0.00z M 256.00,480.00 C 132.288,480.00, 32.00,379.712, 32.00,256.00S 132.288,32.00, 256.00,32.00s 224.00,100.288, 224.00,224.00S 379.712,480.00, 256.00,480.00zM 128.00,384.00l 169.373-79.17L 384.00,128.00l-173.255,82.745L 128.00,384.00z M 256.00,224.00c 17.673,0.00, 32.00,14.327, 32.00,32.00c0.00,17.673-14.327,32.00-32.00,32.00 c-17.673,0.00-32.00-14.327-32.00-32.00C 224.00,238.327, 238.327,224.00, 256.00,224.00z" ></path></svg>