<?xml version="1.0" encoding="utf-8"?> <!-- Generator: IcoMoon.io --> <!DOCTYPE svg PUBLIC "-//W3C//DTD SVG 1.1//EN" "http://www.w3.org/Graphics/SVG/1.1/DTD/svg11.dtd"> <svg width="512" height="512" viewBox="0 0 512 512" xmlns="http://www.w3.org/2000/svg" xmlns:xlink="http://www.w3.org/1999/xlink" fill="#000000"><path d="M 256.00,0.00c-81.67,0.00-147.871,66.202-147.871,147.87c0.00,2.014, 0.061,4.101, 0.16,6.224c 0.05,1.234, 0.126,2.454, 0.209,3.682 c 0.051,0.779, 0.113,1.574, 0.18,2.371c 0.104,1.304, 0.21,2.61, 0.35,3.906C 121.292,283.507, 256.001,512.00, 256.001,512.00 s 134.705-228.492, 146.97-347.948c 0.143-1.295, 0.245-2.603, 0.351-3.905c 0.065-0.797, 0.131-1.592, 0.183-2.371 c 0.084-1.229, 0.158-2.447, 0.21-3.683c 0.097-2.124, 0.157-4.211, 0.157-6.224C 403.866,66.201, 337.666,0.00, 256.00,0.00z M 320.00,160.00 c0.00,35.347-28.654,64.00-64.00,64.00c-35.346,0.00-64.00-28.653-64.00-64.00s 28.654-64.00, 64.00-64.00C 291.346,96.00, 320.00,124.653, 320.00,160.00z" ></path></svg>