<?xml version="1.0" encoding="utf-8"?>
<!-- Generator: Adobe Illustrator 16.0.0, SVG Export Plug-In . SVG Version: 6.00 Build 0)  -->
<!DOCTYPE svg PUBLIC "-//W3C//DTD SVG 1.1//EN" "http://www.w3.org/Graphics/SVG/1.1/DTD/svg11.dtd">
<svg version="1.1" id="Layer_1" xmlns="http://www.w3.org/2000/svg" xmlns:xlink="http://www.w3.org/1999/xlink" x="0px" y="0px"
	 width="512px" height="512px" viewBox="0 0 512 512" enable-background="new 0 0 512 512" xml:space="preserve">
<path d="M412.176,408.08h-43.584v34.624c0,24.736-22.048,44.768-46.784,44.768H156.88c-24.736,0-44.784-20.031-44.784-44.768v-241.6
	h47.968v238.48h31.808l0.032-238.48c8.544,6.16,21.344,10.736,32.128,13.168V439.6h31.808V215.2
	c11.92-1.968,22.848-6.448,32.256-12.912V439.6h31.809V201.104h47.68h44.576c19.775,0,35.824,16.032,35.824,35.824V372.24
	C448,392.032,431.952,408.08,412.176,408.08z M415.856,232.16h-47.28v143.76h47.28V232.16z M339.552,186.272
	c-15.664,0-29.808-6.256-40.271-16.336c-12.992,18.352-34.272,30.432-58.448,30.432c-23.312,0-43.808-11.312-56.912-28.544
	c-10.368,9.584-24.128,15.568-39.36,15.568c-28.08,0-51.504-19.888-56.992-46.336c-8.544-5.6-14.192-15.232-14.192-26.192
	c0-17.312,14.032-31.344,31.344-31.344c1.28,0,2.512,0.224,3.744,0.368c9.68-7.696,21.744-12.56,35.024-12.816
	c5.968-17.696,22.528-30.544,42.256-30.544c15.184,0,28.544,7.6,36.656,19.152c5.888-1.6,12.016-2.592,18.416-2.592
	c6.688,0,13.056,1.12,19.184,2.864c8.08-11.712,21.568-19.424,36.864-19.424c19.312,0,35.616,12.288,41.903,29.408
	c0.272,0,0.496-0.08,0.769-0.08c32.16,0,58.224,26.064,58.224,58.208S371.696,186.272,339.552,186.272z"/>
<path fill="#FFFFFF" d="M412.176,400.08h-43.584v34.624c0,24.736-22.048,44.768-46.784,44.768H156.88
	c-24.736,0-44.784-20.031-44.784-44.768v-241.6h47.968v238.48h31.808l0.032-238.48c8.544,6.16,21.344,10.736,32.128,13.168V431.6
	h31.808V207.2c11.92-1.968,22.848-6.448,32.256-12.912V431.6h31.809V193.104h47.68h44.576c19.775,0,35.824,16.032,35.824,35.824
	V364.24C448,384.032,431.952,400.08,412.176,400.08z M415.856,224.16h-47.28v143.76h47.28V224.16z M339.552,178.272
	c-15.664,0-29.808-6.256-40.271-16.336c-12.992,18.352-34.272,30.432-58.448,30.432c-23.312,0-43.808-11.312-56.912-28.544
	c-10.368,9.584-24.128,15.568-39.36,15.568c-28.08,0-51.504-19.888-56.992-46.336c-8.544-5.6-14.192-15.232-14.192-26.192
	c0-17.312,14.032-31.344,31.344-31.344c1.28,0,2.512,0.224,3.744,0.368c9.68-7.696,21.744-12.56,35.024-12.816
	c5.968-17.696,22.528-30.544,42.256-30.544c15.184,0,28.544,7.6,36.656,19.152c5.888-1.6,12.016-2.592,18.416-2.592
	c6.688,0,13.056,1.12,19.184,2.864c8.08-11.712,21.568-19.424,36.864-19.424c19.312,0,35.616,12.288,41.903,29.408
	c0.272,0,0.496-0.08,0.769-0.08c32.16,0,58.224,26.064,58.224,58.208S371.696,178.272,339.552,178.272z"/>
</svg>
