<?xml version="1.0" encoding="utf-8"?> <!-- Generator: IcoMoon.io --> <!DOCTYPE svg PUBLIC "-//W3C//DTD SVG 1.1//EN" "http://www.w3.org/Graphics/SVG/1.1/DTD/svg11.dtd"> <svg width="512" height="512" viewBox="0 0 512 512" xmlns="http://www.w3.org/2000/svg" xmlns:xlink="http://www.w3.org/1999/xlink" fill="#000000"><path d="M 431.84,297.84c 34.496,25.712, 64.064,49.248, 64.064,49.248l-42.096,73.824l-76.08-33.584 l-70.496,41.232C 302.464,472.032, 298.096,512.00, 298.096,512.00l-84.192,0.00 l-9.344-83.696l-69.472-41.328l-76.912,33.952l-42.08-73.824 c0.00,0.00, 29.072-23.424, 63.488-49.056l0.00-84.144 l-63.488-48.96l 42.08-73.84l 75.072,33.408l 74.528-40.432L 213.904,0.00l 84.192,0.00 l 6.096,83.728l 73.504,41.248 l 76.128-33.888l 42.096,73.84l-64.064,49.136L 431.856,297.84 z M 256.00,192.00c-35.344,0.00-64.00,28.656-64.00,64.00s 28.656,64.00, 64.00,64.00s 64.00-28.656, 64.00-64.00S 291.344,192.00, 256.00,192.00z" ></path></svg>