<?xml version="1.0" encoding="utf-8"?> <!-- Generator: IcoMoon.io --> <!DOCTYPE svg PUBLIC "-//W3C//DTD SVG 1.1//EN" "http://www.w3.org/Graphics/SVG/1.1/DTD/svg11.dtd"> <svg width="512" height="512" viewBox="0 0 512 512" xmlns="http://www.w3.org/2000/svg" xmlns:xlink="http://www.w3.org/1999/xlink" fill="#000000"><path d="M 117.333,10.667c-8.64-5.333-20.693-10.667-32.00-10.667C 38.187,0.00,0.00,38.507,0.00,86.08C0.00,154.88, 73.28,179.413, 117.333,213.333 l0.00,16.00 c0.00,64.533, 45.76,118.293, 106.667,130.667L 224.00,437.333 c0.00,11.733-9.60,21.333-21.333,21.333l-58.667,0.00 c-14.72,0.00-26.667,11.947-26.667,26.667s 11.947,26.667, 26.667,26.667l 213.333,0.00 c 14.72,0.00, 26.667-11.947, 26.667-26.667 S 372.053,458.667, 357.333,458.667L 298.667,458.667 c-11.733,0.00-21.333-9.60-21.333-21.333l0.00-77.333 c 60.907-12.373, 106.667-66.133, 106.667-130.667L 384.00,213.333 c 44.053-33.92, 117.333-58.453, 117.333-127.253C 501.333,38.507, 463.147,0.00, 416.00,0.00 c-11.317,0.00-23.349,5.333-32.00,10.667L 117.333,10.667 z M 213.333,85.333l0.00,128.00 c0.00,11.733-9.60,21.333-21.333,21.333s-21.333-9.60-21.333-21.333L 170.667,85.333 c0.00-11.733, 9.60-21.333, 21.333-21.333S 213.333,73.60, 213.333,85.333z M 53.333,86.08C 53.333,68.267, 67.627,53.76, 85.333,53.76 c 17.707,0.00, 32.00,14.507, 32.00,32.32l0.00,65.60 C 86.613,132.267, 53.333,119.349, 53.333,86.08z M 448.00,86.08c0.00,33.269-33.28,46.187-64.00,65.60L 384.00,86.08 c0.00-17.813, 14.293-32.32, 32.00-32.32 S 448.00,68.267, 448.00,86.08z" ></path></svg>