<?xml version="1.0" encoding="utf-8"?> <!-- Generator: IcoMoon.io --> <!DOCTYPE svg PUBLIC "-//W3C//DTD SVG 1.1//EN" "http://www.w3.org/Graphics/SVG/1.1/DTD/svg11.dtd"> <svg width="512" height="512" viewBox="0 0 512 512" xmlns="http://www.w3.org/2000/svg" xmlns:xlink="http://www.w3.org/1999/xlink" fill="#000000"><path d="M 256.00,96.00C 114.608,96.00,0.00,256.00,0.00,256.00s 114.608,160.00, 256.00,160.00s 256.00-160.00, 256.00-160.00S 397.392,96.00, 256.00,96.00z M 256.00,352.00 c-53.008,0.00-96.00-42.992-96.00-96.00s 42.992-96.00, 96.00-96.00s 96.00,42.992, 96.00,96.00S 309.008,352.00, 256.00,352.00z M 256.00,192.00c-35.344,0.00-64.00,28.656-64.00,64.00s 28.656,64.00, 64.00,64.00s 64.00-28.656, 64.00-64.00 S 291.344,192.00, 256.00,192.00z" ></path></svg>