<?xml version="1.0" encoding="utf-8"?> <!-- Generator: IcoMoon.io --> <!DOCTYPE svg PUBLIC "-//W3C//DTD SVG 1.1//EN" "http://www.w3.org/Graphics/SVG/1.1/DTD/svg11.dtd"> <svg width="512" height="512" viewBox="0 0 512 512" xmlns="http://www.w3.org/2000/svg" xmlns:xlink="http://www.w3.org/1999/xlink" fill="#000000"><path d="M 224.00,192.00L 416.00,192.00L 416.00,224.00L 224.00,224.00zM 224.00,256.00L 416.00,256.00L 416.00,288.00L 224.00,288.00zM 224.00,320.00L 416.00,320.00L 416.00,352.00L 224.00,352.00zM 224.00,384.00L 352.00,384.00L 352.00,416.00L 224.00,416.00zM 480.00,96.00l-96.00,0.00 L 384.00,32.00 c0.00-17.60-14.40-32.00-32.00-32.00L 32.00,0.00 C 14.40,0.00,0.00,14.40,0.00,32.00l0.00,352.00 c0.00,17.60, 14.40,32.00, 32.00,32.00l 96.00,0.00 l0.00,64.00 c0.00,17.60, 14.40,32.00, 32.00,32.00l 320.00,0.00 c 17.60,0.00, 32.00-14.40, 32.00-32.00L 512.00,128.00 C 512.00,110.40, 497.60,96.00, 480.00,96.00z M 128.00,128.00l0.00,240.00 L 48.00,368.00 L 48.00,48.00 l 288.00,0.00 l0.00,48.00 L 160.00,96.00 C 142.40,96.00, 128.00,110.40, 128.00,128.00z M 464.00,464.00L 176.00,464.00 L 176.00,144.00 l 288.00,0.00 L 464.00,464.00 z" ></path></svg>