<?xml version="1.0" encoding="utf-8"?> <!-- Generator: IcoMoon.io --> <!DOCTYPE svg PUBLIC "-//W3C//DTD SVG 1.1//EN" "http://www.w3.org/Graphics/SVG/1.1/DTD/svg11.dtd"> <svg width="512" height="512" viewBox="0 0 512 512" xmlns="http://www.w3.org/2000/svg" xmlns:xlink="http://www.w3.org/1999/xlink" fill="#000000"><path d="M 112.00,192.00L 16.00,192.00 c-8.848,0.00-16.00,7.152-16.00,16.00l0.00,96.00 c0.00,8.848, 7.152,16.00, 16.00,16.00l 96.00,0.00 c 8.848,0.00, 16.00-7.152, 16.00-16.00l0.00-96.00 C 128.00,199.152, 120.848,192.00, 112.00,192.00z M 96.00,272.00c0.00,8.848-7.152,16.00-16.00,16.00L 48.00,288.00 c-8.848,0.00-16.00-7.152-16.00-16.00l0.00-32.00 c0.00-8.848, 7.152-16.00, 16.00-16.00l 32.00,0.00 c 8.848,0.00, 16.00,7.152, 16.00,16.00L 96.00,272.00 z M 112.00,0.00L 16.00,0.00 C 7.152,0.00,0.00,7.152,0.00,16.00l0.00,96.00 c0.00,8.848, 7.152,16.00, 16.00,16.00l 96.00,0.00 c 8.848,0.00, 16.00-23.152, 16.00-32.00L 128.00,16.00 C 128.00,7.152, 120.848,0.00, 112.00,0.00z M 96.00,80.00c0.00,8.848-7.152,16.00-16.00,16.00L 48.00,96.00 C 39.152,96.00, 32.00,88.848, 32.00,80.00L 32.00,48.00 c0.00-8.848, 7.152-16.00, 16.00-16.00l 32.00,0.00 c 8.848,0.00, 16.00,7.152, 16.00,16.00L 96.00,80.00 z M 112.00,384.00L 16.00,384.00 c-8.848,0.00-16.00,7.152-16.00,16.00l0.00,96.00 c0.00,8.848, 7.152,16.00, 16.00,16.00l 96.00,0.00 c 8.848,0.00, 16.00-7.152, 16.00-16.00l0.00-96.00 C 128.00,391.152, 120.848,384.00, 112.00,384.00z M 96.00,464.00c0.00,8.848-7.152,16.00-16.00,16.00L 48.00,480.00 c-8.848,0.00-16.00-7.152-16.00-16.00l0.00-32.00 c0.00-8.848, 7.152-16.00, 16.00-16.00l 32.00,0.00 c 8.848,0.00, 16.00,7.152, 16.00,16.00L 96.00,464.00 z M 304.00,192.00l-96.00,0.00 c-8.848,0.00-16.00,7.152-16.00,16.00l0.00,96.00 c0.00,8.848, 7.152,16.00, 16.00,16.00l 96.00,0.00 c 8.848,0.00, 16.00-7.152, 16.00-16.00l0.00-96.00 C 320.00,199.152, 312.848,192.00, 304.00,192.00z M 288.00,272.00c0.00,8.848-7.152,16.00-16.00,16.00l-32.00,0.00 c-8.848,0.00-16.00-7.152-16.00-16.00l0.00-32.00 c0.00-8.848, 7.152-16.00, 16.00-16.00l 32.00,0.00 c 8.848,0.00, 16.00,7.152, 16.00,16.00 L 288.00,272.00 z M 304.00,384.00l-96.00,0.00 c-8.848,0.00-16.00,7.152-16.00,16.00l0.00,96.00 c0.00,8.848, 7.152,16.00, 16.00,16.00l 96.00,0.00 c 8.848,0.00, 16.00-7.152, 16.00-16.00l0.00-96.00 C 320.00,391.152, 312.848,384.00, 304.00,384.00z M 288.00,464.00 c0.00,8.848-7.152,16.00-16.00,16.00l-32.00,0.00 c-8.848,0.00-16.00-7.152-16.00-16.00l0.00-32.00 c0.00-8.848, 7.152-16.00, 16.00-16.00l 32.00,0.00 c 8.848,0.00, 16.00,7.152, 16.00,16.00L 288.00,464.00 z M 496.00,192.00l-96.00,0.00 c-8.848,0.00-16.00,7.152-16.00,16.00 l0.00,96.00 c0.00,8.848, 7.152,16.00, 16.00,16.00l 96.00,0.00 c 8.848,0.00, 16.00-7.152, 16.00-16.00l0.00-96.00 C 512.00,199.152, 504.848,192.00, 496.00,192.00z M 480.00,272.00c0.00,8.848-7.152,16.00-16.00,16.00l-32.00,0.00 c-8.848,0.00-16.00-7.152-16.00-16.00 l0.00-32.00 c0.00-8.848, 7.152-16.00, 16.00-16.00l 32.00,0.00 c 8.848,0.00, 16.00,7.152, 16.00,16.00L 480.00,272.00 z M 496.00,0.00l-96.00,0.00 c-8.848,0.00-16.00,7.152-16.00,16.00l0.00,96.00 c0.00,8.848, 7.152,16.00, 16.00,16.00l 96.00,0.00 c 8.848,0.00, 16.00-23.152, 16.00-32.00L 512.00,16.00 C 512.00,7.152, 504.848,0.00, 496.00,0.00z M 480.00,80.00c0.00,8.848-7.152,16.00-16.00,16.00l-32.00,0.00 c-8.848,0.00-16.00-7.152-16.00-16.00L 416.00,48.00 c0.00-8.848, 7.152-16.00, 16.00-16.00l 32.00,0.00 c 8.848,0.00, 16.00,7.152, 16.00,16.00L 480.00,80.00 z M 304.00,0.00l-96.00,0.00 c-8.848,0.00-16.00,7.152-16.00,16.00l0.00,96.00 c0.00,8.848, 7.152,16.00, 16.00,16.00l 96.00,0.00 c 8.848,0.00, 16.00-23.152, 16.00-32.00L 320.00,16.00 C 320.00,7.152, 312.848,0.00, 304.00,0.00z M 288.00,80.00 c0.00,8.848-7.152,16.00-16.00,16.00l-32.00,0.00 c-8.848,0.00-16.00-7.152-16.00-16.00L 224.00,48.00 c0.00-8.848, 7.152-16.00, 16.00-16.00l 32.00,0.00 c 8.848,0.00, 16.00,7.152, 16.00,16.00L 288.00,80.00 z M 496.00,384.00l-96.00,0.00 c-8.848,0.00-16.00,7.152-16.00,16.00l0.00,96.00 c0.00,8.848, 7.152,16.00, 16.00,16.00l 96.00,0.00 c 8.848,0.00, 16.00-7.152, 16.00-16.00l0.00-96.00 C 512.00,391.152, 504.848,384.00, 496.00,384.00z M 480.00,464.00c0.00,8.848-7.152,16.00-16.00,16.00l-32.00,0.00 c-8.848,0.00-16.00-7.152-16.00-16.00 l0.00-32.00 c0.00-8.848, 7.152-16.00, 16.00-16.00l 32.00,0.00 c 8.848,0.00, 16.00,7.152, 16.00,16.00L 480.00,464.00 z" ></path></svg>