<?xml version="1.0" encoding="utf-8"?> <!-- Generator: IcoMoon.io --> <!DOCTYPE svg PUBLIC "-//W3C//DTD SVG 1.1//EN" "http://www.w3.org/Graphics/SVG/1.1/DTD/svg11.dtd"> <svg width="512" height="512" viewBox="0 0 512 512" xmlns="http://www.w3.org/2000/svg" xmlns:xlink="http://www.w3.org/1999/xlink" fill="#000000"><path d="M 256.00,0.00C 114.615,0.00,0.00,114.615,0.00,256.00s 114.615,256.00, 256.00,256.00s 256.00-114.615, 256.00-256.00S 397.385,0.00, 256.00,0.00z M 256.00,448.00 c-26.51,0.00-48.00-21.49-48.00-48.00s 21.49-48.00, 48.00-48.00s 48.00,21.49, 48.00,48.00S 282.51,448.00, 256.00,448.00z M 368.064,177.029 c-2.495,8.446-5.956,16.459-10.406,24.007c-4.445,7.567-9.79,14.732-16.019,21.476c-6.229,6.771-13.061,13.267-20.541,19.486 c-8.363,6.936-15.08,13.076-20.146,18.418c-5.057,5.328-8.488,9.967-10.269,13.867c-3.339,7.174-5.853,24.363-2.691,45.717l-63.959,0.00 c-0.525-37.938, 5.058-56.501, 11.688-70.258c 6.764-13.884, 19.377-28.554, 37.888-44.031c 8.011-6.567, 14.236-12.408, 18.675-17.479 c 4.449-5.067, 7.841-9.599, 10.143-13.604c 2.307-4.00, 3.729-7.734, 4.271-11.211c 0.53-3.461, 0.793-7.056, 0.793-10.799 c0.00-6.938-1.199-13.337-3.603-19.205c-2.396-5.883-5.824-10.938-10.264-15.197c-4.457-4.281-9.696-7.617-15.744-10.021 c-6.048-2.399-12.804-3.61-20.279-3.61c-29.164,0.00-46.955,20.371-53.365,61.104l-64.027,0.00 c 1.598-17.44, 5.56-33.211, 11.876-47.353 c 6.313-14.15, 14.576-26.151, 24.813-36.028c 10.231-9.876, 22.146-17.47, 35.754-22.796c 13.60-5.34, 28.409-8.012, 44.419-8.012 c 17.08,0.00, 32.642,2.441, 46.696,7.332c 14.057,4.899, 26.104,11.709, 36.146,20.42c 10.057,8.713, 17.872,19.119, 23.482,31.211 c 5.591,12.104, 8.411,25.261, 8.411,39.484C 371.804,159.546, 370.546,168.576, 368.064,177.029z" ></path></svg>