<?xml version="1.0" encoding="utf-8"?> <!-- Generator: IcoMoon.io --> <!DOCTYPE svg PUBLIC "-//W3C//DTD SVG 1.1//EN" "http://www.w3.org/Graphics/SVG/1.1/DTD/svg11.dtd"> <svg width="512" height="512" viewBox="0 0 512 512" xmlns="http://www.w3.org/2000/svg" xmlns:xlink="http://www.w3.org/1999/xlink" fill="#000000"><path d="M 256.00,0.00C 114.608,0.00,0.00,114.624,0.00,256.00c0.00,141.376, 114.608,256.00, 256.00,256.00s 256.00-114.624, 256.00-256.00 C 512.00,114.624, 397.392,0.00, 256.00,0.00z M 256.00,96.00c 17.664,0.00, 32.00,14.336, 32.00,32.00s-14.336,32.00-32.00,32.00s-32.00-14.336-32.00-32.00S 238.336,96.00, 256.00,96.00z M 176.00,384.00l 48.00-32.00l 32.00,0.00 l0.00-128.00 l-32.00,0.00 l-16.00-32.00l 80.00,0.00 l0.00,32.00 l0.00,128.00 l 32.00,0.00 l 48.00,32.00 L 176.00,384.00 z" ></path></svg>