<?xml version="1.0" encoding="utf-8"?> <!-- Generator: IcoMoon.io --> <!DOCTYPE svg PUBLIC "-//W3C//DTD SVG 1.1//EN" "http://www.w3.org/Graphics/SVG/1.1/DTD/svg11.dtd"> <svg width="512" height="512" viewBox="0 0 512 512" xmlns="http://www.w3.org/2000/svg" xmlns:xlink="http://www.w3.org/1999/xlink" fill="#000000"><path d="M 464.00,512.00L 48.00,512.00 c-8.832,0.00-16.00-7.152-16.00-16.00L 32.00,240.00 c0.00-8.848, 7.168-16.00, 16.00-16.00l 48.00,0.00 l0.00-64.00 C 96.00,71.632, 167.632,0.00, 256.00,0.00 s 160.00,71.632, 160.00,160.00l0.00,64.00 l 48.00,0.00 c 8.848,0.00, 16.00,7.152, 16.00,16.00l0.00,256.00 C 480.00,504.848, 472.848,512.00, 464.00,512.00z M 352.00,152.00C 352.00,103.392, 309.008,64.00, 256.00,64.00s-96.00,39.392-96.00,88.00L 160.00,224.00 l 192.00,0.00 L 352.00,152.00 z" ></path></svg>