<?xml version="1.0" encoding="utf-8"?> <!-- Generator: IcoMoon.io --> <!DOCTYPE svg PUBLIC "-//W3C//DTD SVG 1.1//EN" "http://www.w3.org/Graphics/SVG/1.1/DTD/svg11.dtd"> <svg width="512" height="512" viewBox="0 0 512 512" xmlns="http://www.w3.org/2000/svg" xmlns:xlink="http://www.w3.org/1999/xlink" fill="#000000"><path d="M 224.272,148.832l 62.944,0.00 L 287.216,125.216 l-62.944,0.00 L 224.272,148.832 z M 286.752,156.688l-62.48,0.00 c0.00,0.00-102.80,101.328-102.80,200.672c0.00,105.264, 107.712,113.632, 107.712,113.632s 32.128,5.328, 52.112,0.00c0.00,0.00, 109.216-12.80, 109.216-113.12 C 390.528,257.52, 286.752,156.688, 286.752,156.688z M 291.376,369.968c-2.528,5.12-5.936,9.408-10.288,12.832 c-4.336,3.44-9.408,6.016-15.184,7.744c-0.736,0.224-1.536,0.304-2.288,0.496l0.00,17.472 l-15.728,0.00 l0.00-15.424 c-0.192,0.016-0.384,0.048-0.576,0.048c-4.464,0.00-8.608-0.352-12.448-1.072c-3.824-0.736-7.20-1.616-10.144-2.624 c-2.944-1.024-5.392-2.096-7.344-3.216c-1.968-1.12-3.392-2.112-4.256-2.976c-0.88-0.864-1.488-2.112-1.856-3.744 c-0.352-1.648-0.544-3.984-0.544-7.056c0.00-2.064, 0.064-3.792, 0.208-5.20s 0.336-2.528, 0.656-3.408 c 0.304-0.88, 0.688-1.488, 1.184-1.856c 0.496-0.352, 1.088-0.544, 1.744-0.544c 0.944,0.00, 2.256,0.544, 3.952,1.648 c 1.696,1.104, 3.872,2.32, 6.544,3.648c 2.672,1.344, 5.84,2.544, 9.552,3.664c 3.696,1.088, 7.984,1.648, 12.848,1.648 c 3.20,0.00, 6.064-0.384, 8.592-1.152s 4.688-1.84, 6.448-3.248c 1.776-1.408, 3.12-3.136, 4.048-5.20c 0.944-2.08, 1.408-4.368, 1.408-6.928 c0.00-2.928-0.816-5.44-2.40-7.552c-1.60-2.096-3.696-3.952-6.256-5.60c-2.56-1.632-5.472-3.152-8.736-4.592s-6.64-2.96-10.096-4.544 c-3.472-1.60-6.832-3.408-10.096-5.456c-3.264-2.032-6.192-4.448-8.752-7.28s-4.64-6.192-6.256-10.048 c-1.60-3.856-2.384-8.496-2.384-13.888c0.00-6.208, 1.152-11.648, 3.44-16.336c 2.304-4.688, 5.408-8.592, 9.296-11.68 c 3.904-3.088, 8.496-5.408, 13.792-6.944c 2.72-0.784, 5.536-1.36, 8.416-1.728l0.00-16.56 l 15.728,0.00 l0.00,16.544 c 0.64,0.08, 1.264,0.048, 1.888,0.144 c 3.056,0.464, 5.936,1.088, 8.592,1.888c 2.656,0.784, 5.024,1.68, 7.088,2.672s 3.44,1.808, 4.096,2.48 c 0.688,0.656, 1.12,1.216, 1.376,1.68c 0.224,0.464, 0.40,1.088, 0.592,1.856c 0.16,0.768, 0.288,1.728, 0.336,2.912 c 0.064,1.152, 0.096,2.608, 0.096,4.336c0.00,1.936-0.064,3.584-0.16,4.928c-0.096,1.328-0.256,2.432-0.496,3.296 c-0.224,0.88-0.56,1.504-0.992,1.904s-0.992,0.592-1.744,0.592c-0.72,0.00-1.904-0.448-3.504-1.376 c-1.60-0.944-3.568-1.936-5.872-3.024c-2.336-1.088-5.024-2.08-8.096-2.992c-3.088-0.896-6.448-1.328-10.096-1.328 c-2.88,0.00-5.376,0.336-7.504,1.04c-2.144,0.688-3.92,1.664-5.36,2.88c-1.424,1.232-2.496,2.72-3.184,4.432 c-0.704,1.712-1.04,3.552-1.04,5.472c0.00,2.88, 0.784,5.36, 2.336,7.456s 3.664,3.968, 6.304,5.60 c 2.624,1.648, 5.616,3.168, 8.96,4.592c 3.328,1.44, 6.72,2.96, 10.192,4.544c 3.472,1.616, 6.848,3.424, 10.192,5.456 s 6.32,4.464, 8.912,7.296s 4.688,6.16, 6.288,9.984c 1.60,3.84, 2.40,8.336, 2.40,13.552C 295.184,358.88, 293.904,364.832, 291.376,369.968z M 286.256,117.344l 31.968-78.704c0.00,0.00-20.16,16.736-31.968,16.736s-30.512-16.24-30.512-16.24s-20.16,16.24-31.968,16.24 c-11.792,0.00-30.992-15.744-30.992-15.744l 32.464,77.712L 286.256,117.344 z" ></path></svg>