<?xml version="1.0" encoding="utf-8"?> <!-- Generator: IcoMoon.io --> <!DOCTYPE svg PUBLIC "-//W3C//DTD SVG 1.1//EN" "http://www.w3.org/Graphics/SVG/1.1/DTD/svg11.dtd"> <svg width="512" height="512" viewBox="0 0 512 512" xmlns="http://www.w3.org/2000/svg" xmlns:xlink="http://www.w3.org/1999/xlink" fill="#000000"><path d="M 64.00,512.00L 64.00,0.00 l 384.00,0.00 l0.00,512.00 L 64.00,512.00 z M 416.00,64.00l-32.00,0.00 l0.00,32.00 l-32.00,0.00 L 352.00,64.00 l-32.00,0.00 l0.00,32.00 L 288.00,96.00 L 288.00,64.00 L 224.00,64.00 l0.00,32.00 L 192.00,96.00 L 192.00,64.00 L 160.00,64.00 l0.00,32.00 L 128.00,96.00 L 128.00,64.00 L 96.00,64.00 l0.00,416.00 l 320.00,0.00 L 416.00,64.00 z M 384.00,192.00 L 128.00,192.00 L 128.00,160.00 l 256.00,0.00 L 384.00,192.00 z M 352.00,256.00L 128.00,256.00 L 128.00,224.00 l 224.00,0.00 L 352.00,256.00 z M 384.00,320.00L 128.00,320.00 L 128.00,288.00 l 256.00,0.00 L 384.00,320.00 z M 352.00,384.00L 128.00,384.00 l0.00-32.00 l 224.00,0.00 L 352.00,384.00 z M 384.00,448.00L 128.00,448.00 l0.00-32.00 l 256.00,0.00 L 384.00,448.00 z" ></path></svg>