<?xml version="1.0" encoding="utf-8"?> <!-- Generator: IcoMoon.io --> <!DOCTYPE svg PUBLIC "-//W3C//DTD SVG 1.1//EN" "http://www.w3.org/Graphics/SVG/1.1/DTD/svg11.dtd"> <svg width="512" height="512" viewBox="0 0 512 512" xmlns="http://www.w3.org/2000/svg" xmlns:xlink="http://www.w3.org/1999/xlink" fill="#000000"><path d="M 303.568,284.832l-124.704-72.00c-15.296-8.848-34.88-3.60-43.712,11.696 c-8.832,15.312-3.584,34.88, 11.712,43.712l 124.688,72.00c 15.312,8.848, 34.88,3.60, 43.712-11.712C 324.128,313.232, 318.88,293.664, 303.568,284.832z M 200.72,206.976l 96.992,56.00l 32.992-91.808l-66.976-38.656L 200.72,206.976z M 129.216,442.816l 92.784-112.704l-41.568-24.00L 129.216,442.816z M 370.784,120.40l-83.12-48.00c-11.488-6.624-26.16-2.704-32.784,8.784c-6.64,11.488-2.688,26.16, 8.784,32.784l 83.136,48.00 c 11.488,6.624, 26.16,2.704, 32.784-8.784C 386.208,141.696, 382.272,127.024, 370.784,120.40z" ></path></svg>