<?xml version="1.0" encoding="utf-8"?> <!-- Generator: IcoMoon.io --> <!DOCTYPE svg PUBLIC "-//W3C//DTD SVG 1.1//EN" "http://www.w3.org/Graphics/SVG/1.1/DTD/svg11.dtd"> <svg width="512" height="512" viewBox="0 0 512 512" xmlns="http://www.w3.org/2000/svg" xmlns:xlink="http://www.w3.org/1999/xlink" fill="#000000"><path d="M 144.00,432.00c 8.837,0.00, 16.00-7.163, 16.00-16.00c0.00-0.003,0.00-0.007,0.00-0.01L 160.00,192.009 c0.00-0.003,0.00-0.006,0.00-0.01c0.00-8.836-7.164-16.00-16.00-16.00 c-8.836,0.00-16.00,7.164-16.00,16.00l0.00,0.00 l0.00,224.00 C 128.00,424.837, 135.164,432.00, 144.00,432.00zM 240.00,432.00c 8.837,0.00, 16.00-7.163, 16.00-16.00c0.00-0.003,0.00-0.007,0.00-0.01L 256.00,192.009 c0.00-0.003,0.00-0.006,0.00-0.01c0.00-8.836-7.164-16.00-16.00-16.00 c-8.836,0.00-16.00,7.164-16.00,16.00l0.00,0.00 l0.00,224.00 C 224.00,424.837, 231.164,432.00, 240.00,432.00zM 336.00,432.00c 8.837,0.00, 16.00-7.163, 16.00-16.00c0.00-0.003,0.00-0.007,0.00-0.01L 352.00,192.009 c0.00-0.003,0.00-0.006,0.00-0.01c0.00-8.836-7.163-16.00-16.00-16.00 c-8.836,0.00-16.00,7.164-16.00,16.00l0.00,0.00 l0.00,224.00 C 320.00,424.837, 327.164,432.00, 336.00,432.00zM 351.987,64.54C 351.99,64.36, 352.00,64.181, 352.00,64.00L 352.00,32.00 c0.00-17.60-14.40-32.00-32.00-32.00L 160.00,0.00 c-17.60,0.00-32.00,14.40-32.00,32.00l0.00,32.00 c0.00,0.181, 0.011,0.36, 0.014,0.54L0.00,64.54 L0.00,96.00 l 32.00,0.00 l0.00,352.00 c0.00,35.20, 28.80,64.00, 64.00,64.00l 288.00,0.00 c 35.20,0.00, 64.00-28.80, 64.00-64.00L 448.00,96.00 l 32.00,0.00 L 480.00,64.54 L 351.987,64.54 z M 160.00,32.057 c 0.017-0.02, 0.038-0.041, 0.057-0.057l 159.885,0.00 c 0.02,0.017, 0.041,0.038, 0.058,0.058l0.00,31.885 c-0.017,0.02-0.038,0.041-0.058,0.057 L 160.057,64.00 c-0.02-0.017-0.041-0.038-0.057-0.057L 160.00,32.057 z M 416.00,448.00c0.00,8.477-3.348,16.493-9.428,22.572 C 400.493,476.652, 392.477,480.00, 384.00,480.00L 96.00,480.00 c-8.477,0.00-16.493-3.348-22.573-9.428C 67.348,464.493, 64.00,456.477, 64.00,448.00L 64.00,96.00 l 352.00,0.00 L 416.00,448.00 z" ></path></svg>