<?xml version="1.0" encoding="utf-8"?> <!-- Generator: IcoMoon.io --> <!DOCTYPE svg PUBLIC "-//W3C//DTD SVG 1.1//EN" "http://www.w3.org/Graphics/SVG/1.1/DTD/svg11.dtd"> <svg width="512" height="512" viewBox="0 0 512 512" xmlns="http://www.w3.org/2000/svg" xmlns:xlink="http://www.w3.org/1999/xlink" fill="#000000"><path d="M 256.00,10.667c-9.504,0.00-17.387,6.40-19.84,15.147L 185.813,181.333L 20.48,181.333 C 9.067,181.333,0.00,191.264,0.00,202.773 c0.00,7.04, 3.52,13.333, 8.853,17.077c 3.307,2.24, 133.547,97.387, 133.547,97.387s-50.016,153.60-50.987,156.053C 90.667,475.52, 90.133,477.984, 90.133,480.533 c0.00,11.52, 9.269,20.80, 20.683,20.80c 4.373,0.00, 8.427-1.387, 11.84-3.733L 256.00,400.533c0.00,0.00, 130.347,94.933, 133.333,97.077c 3.403,2.347, 7.467,3.733, 11.829,3.733 c 11.413,0.00, 20.693-9.387, 20.693-20.80c0.00-2.549-0.533-5.013-1.28-7.253c-0.96-2.443-50.976-156.053-50.976-156.053s 130.229-95.147, 133.547-97.387 C 508.48,216.107, 512.00,209.813, 512.00,202.667c0.00-11.403-8.853-21.333-20.267-21.333L 326.40,181.333 l-50.56-155.52C 273.387,17.067, 265.493,10.667, 256.00,10.667z" ></path></svg>