<?xml version="1.0" encoding="UTF-8" standalone="no"?>
<svg width="186px" height="14px" viewBox="0 0 186 14" version="1.1" xmlns="http://www.w3.org/2000/svg" xmlns:xlink="http://www.w3.org/1999/xlink" xmlns:sketch="http://www.bohemiancoding.com/sketch/ns">
    <title>Artboard 1</title>
    <description>Created with Sketch (http://www.bohemiancoding.com/sketch)</description>
    <defs></defs>
    <g id="Page 1" fill="rgb(215,215,215)" fill-rule="evenodd">
        <g id="Artboard 1">
            <path d="M25.4857422,13 L23.0921875,13 L17.8412109,6.14404297 L16.5516602,4.40917969 L16.5145508,4.40917969 C16.5516603,4.7122411 16.5702148,5.32763208 16.5702148,6.25537109 L16.5702148,13 L13.9725586,13 L13.9725586,0.475585938 L16.5702148,0.475585938 L21.6078125,7.07177734 C22.0469423,7.64079061 22.4706034,8.21598017 22.8788086,8.79736328 L22.915918,8.79736328 C22.8911783,8.35823348 22.8788086,7.66243966 22.8788086,6.70996094 L22.8788086,0.475585938 L25.4857422,0.475585938 Z M5.87451172,13.1855469 C3.45002043,13.1855469 1.84196359,12.4093502 1.05029297,10.8569336 C0.679197363,10.1518519 0.493652344,9.2890676 0.493652344,8.26855469 L0.493652344,0.475585938 L3.10058594,0.475585938 L3.10058594,8.12011719 C3.10058594,8.7695345 3.2211902,9.31998472 3.46240234,9.77148438 C3.90771707,10.6064495 4.71793032,11.0239258 5.89306641,11.0239258 C7.05583264,11.0239258 7.85986105,10.6064495 8.30517578,9.77148438 C8.54638792,9.35090936 8.66699219,8.7942743 8.66699219,8.1015625 L8.66699219,0.475585938 L11.2739258,0.475585938 L11.2739258,8.26855469 C11.2739258,9.2890676 11.0883808,10.1518519 10.7172852,10.8569336 C9.92561453,12.4093502 8.31137286,13.1855469 5.87451172,13.1855469 Z M28.2771484,13 L28.2771484,0.475585938 L30.8748047,0.475585938 L30.8748047,13 Z M37.4049805,13.0927734 L32.293164,0.475585938 L35.0856445,0.475585938 L37.5998047,7.01611328 C37.8533867,7.65316074 38.1502587,8.47574366 38.4904297,9.48388672 L38.527539,9.48388672 C38.9419291,8.28401093 39.2388012,7.45524317 39.418164,6.99755859 L41.9323242,0.475585938 L44.7248047,0.475585938 L39.6129883,13.0927734 Z M46.143164,13 L46.143164,0.475585938 L53.3794922,0.475585938 L52.6929687,2.68359375 L48.7408203,2.68359375 L48.7408203,5.56884766 L52.7115234,5.56884766 L52.7115234,7.75830078 L48.7408203,7.75830078 L48.7408203,10.7919922 L53.3609375,10.7919922 L53.3609375,13 Z M55.7719726,13 L55.7719726,0.475585938 L59.5107422,0.475585938 C60.5621797,0.475585938 61.4373337,0.636391621 62.1362304,0.958007812 C62.8227573,1.2548843 63.3268213,1.67699922 63.6484375,2.22436523 C63.9700537,2.77173125 64.1308593,3.40103811 64.1308593,4.11230469 C64.1308593,4.90397531 63.9082053,5.57966843 63.4628906,6.1394043 C63.0175759,6.69914017 62.4300166,7.09342333 61.7001953,7.32226562 L61.7001953,7.359375 C62.1022155,7.57584744 62.6341112,8.25927159 63.2958984,9.40966797 L65.3276367,13 L62.340332,13 L60.6889648,9.99414062 C60.1261365,8.93033322 59.6715512,8.35514366 59.3251953,8.26855469 L58.3696289,8.26855469 L58.3696289,13 Z M58.3696289,6.16259766 L59.34375,6.16259766 C59.8323592,6.16259766 60.2498355,6.07291756 60.5961914,5.89355469 C61.1528348,5.54719879 61.4311523,5.0400424 61.4311523,4.37207031 C61.4311523,4.03808427 61.3569343,3.73657361 61.2084961,3.4675293 C61.0600578,3.19848498 60.8497735,2.99283925 60.5776367,2.85058594 C60.2807602,2.67740799 59.8756536,2.59082031 59.3623047,2.59082031 L58.3696289,2.59082031 Z M67.5252929,12.0537109 L68.5179687,10.0961914 C69.4518927,10.7146841 70.4012647,11.0239258 71.3661132,11.0239258 C71.9103868,11.0239258 72.3696107,10.9187836 72.7437988,10.7084961 C73.1179869,10.4982086 73.3050781,10.1735048 73.3050781,9.734375 C73.3050781,9.43131359 73.2061207,9.15608848 73.0082031,8.90869141 C72.8102854,8.66129434 72.5536148,8.44482515 72.2381836,8.25927734 C71.9227523,8.07372954 71.5748554,7.88973073 71.1944824,7.70727539 C70.8141094,7.52482005 70.4337421,7.32226674 70.0533691,7.09960938 C69.6729961,6.87695201 69.3250992,6.62955865 69.0096679,6.35742188 C68.6942367,6.0852851 68.4375661,5.7404806 68.2396484,5.32299805 C68.0417307,4.90551549 67.9427734,4.43701432 67.9427734,3.91748047 C67.9427734,2.92789219 68.3200483,2.08520856 69.0746093,1.3894043 C69.8291704,0.693600037 70.8527604,0.345703125 72.1454101,0.345703125 C73.3700256,0.345703125 74.4276322,0.568357148 75.3182617,1.01367188 L75.3182617,3.3515625 C74.2173447,2.80728895 73.1844774,2.53515625 72.2196289,2.53515625 C71.7743141,2.53515625 71.4125014,2.62483634 71.1341797,2.80419922 C70.8558579,2.98356209 70.7166992,3.27734171 70.7166992,3.68554688 C70.7166992,3.97005351 70.8156565,4.22981653 71.0135742,4.46484375 C71.2114918,4.69987097 71.4681624,4.9055167 71.7835937,5.08178711 C72.099025,5.25805752 72.4469219,5.43432529 72.8272949,5.6105957 C73.2076679,5.78686612 73.5880352,5.98787322 73.9684082,6.21362305 C74.3487812,6.43937287 74.6966781,6.69140486 75.0121093,6.96972656 C75.3275406,7.24804827 75.5842112,7.60522243 75.7821289,8.04125977 C75.9800465,8.4772971 76.0790039,8.96435278 76.0790039,9.50244141 C76.0790039,10.6219131 75.6445193,11.5156217 74.7755371,12.1835938 C73.9065549,12.8515658 72.8010158,13.1855469 71.4588867,13.1855469 C70.7166955,13.1855469 70.0008009,13.0881357 69.3111816,12.8933105 C68.6215623,12.6984854 68.026272,12.4186216 67.5252929,12.0537109 Z M78.3787109,13 L78.3787109,0.475585938 L80.9763671,0.475585938 L80.9763671,13 Z M86.1798828,13 L86.1798828,2.68359375 L82.5338867,2.68359375 L82.5338867,0.475585938 L92.7100585,0.475585938 L92.734892,0.51911118 L92.070996,2.68359375 L88.777539,2.68359375 L88.777539,13 Z M92.734892,0.51911118 L92.7482421,0.475585938 L95.5210937,0.475585938 L98.3321289,5.80078125 L98.3785156,5.80078125 L101.189551,0.475585938 L103.982031,0.475585938 L99.630957,8.08300781 L99.630957,13 L97.0240234,13 L97.0240234,8.03662109 Z M115.336426,13.1855469 C113.450023,13.1855469 111.913092,12.5918028 110.725586,11.4042969 C109.53808,10.2167909 108.944336,8.67058244 108.944336,6.765625 C108.944336,5.83170106 109.102049,4.9658243 109.41748,4.16796875 C109.732912,3.3701132 110.168942,2.69132767 110.725586,2.1315918 C111.282229,1.57185593 111.957922,1.13427892 112.752685,0.818847656 C113.547449,0.503416392 114.408687,0.345703125 115.336426,0.345703125 C116.573411,0.345703125 117.677404,0.616289612 118.648437,1.1574707 C119.619471,1.69865179 120.374021,2.45784017 120.912109,3.43505859 C121.450198,4.41227702 121.719238,5.52245472 121.719238,6.765625 C121.719238,8.02735006 121.448652,9.14680501 120.907471,10.1240234 C120.36629,11.1012419 119.61174,11.8557916 118.643799,12.3876953 C117.675858,12.919599 116.573411,13.1855469 115.336426,13.1855469 Z M115.336426,11.0239258 C116.431158,11.0239258 117.306312,10.6512895 117.961914,9.90600586 C118.617516,9.16072219 118.945312,8.11393903 118.945312,6.765625 C118.945312,5.42968082 118.619062,4.39062871 117.966553,3.6484375 C117.314043,2.90624629 116.437343,2.53515625 115.336426,2.53515625 C114.235509,2.53515625 113.357262,2.90470008 112.70166,3.64379883 C112.046058,4.38289758 111.718262,5.42349589 111.718262,6.765625 C111.718262,8.11393903 112.046058,9.16072219 112.70166,9.90600586 C113.357262,10.6512895 114.235509,11.0239258 115.336426,11.0239258 Z M124.418945,13 L124.418945,0.475585938 L131.710937,0.475585938 L131.024414,2.68359375 L127.016602,2.68359375 L127.016602,5.56884766 L130.96875,5.56884766 L130.96875,7.75830078 L127.016602,7.75830078 L127.016602,13 Z M137.475195,13 L137.475195,0.475585938 L140.072851,0.475585938 L140.072851,10.7919922 L144.44248,10.7919922 L144.44248,13 Z M145.802051,13 L145.802051,0.475585938 L153.038379,0.475585938 L152.351855,2.68359375 L148.399707,2.68359375 L148.399707,5.56884766 L152.37041,5.56884766 L152.37041,7.75830078 L148.399707,7.75830078 L148.399707,10.7919922 L153.019824,10.7919922 L153.019824,13 Z M155.130859,13 L155.130859,0.475585938 L162.367187,0.475585938 L161.680664,2.68359375 L157.728516,2.68359375 L157.728516,5.56884766 L161.699219,5.56884766 L161.699219,7.75830078 L157.728516,7.75830078 L157.728516,10.7919922 L162.348633,10.7919922 L162.348633,13 Z M164.459668,13 L164.459668,0.475585938 L168.671582,0.475585938 C170.848676,0.475585938 172.546413,1.02912858 173.764844,2.13623047 C174.983274,3.24333236 175.59248,4.7431546 175.59248,6.63574219 C175.59248,8.56543934 174.938434,10.1085554 173.630322,11.2651367 C172.32221,12.421718 170.58891,13 168.430371,13 Z M167.057324,10.7919922 L168.486035,10.7919922 C169.234411,10.7919922 169.893096,10.6837576 170.462109,10.4672852 C171.031123,10.2508127 171.484162,9.95239448 171.82124,9.57202148 C172.158319,9.19164849 172.408804,8.76180253 172.572705,8.2824707 C172.736606,7.80313888 172.818555,7.2789742 172.818555,6.70996094 C172.818555,5.43586603 172.444372,4.44629259 171.695996,3.74121094 C170.94762,3.03612929 169.859089,2.68359375 168.430371,2.68359375 L167.057324,2.68359375 Z M176.998437,12.0537109 L177.991113,10.0961914 C178.925037,10.7146841 179.874409,11.0239258 180.839258,11.0239258 C181.383531,11.0239258 181.842755,10.9187836 182.216943,10.7084961 C182.591131,10.4982086 182.778223,10.1735048 182.778223,9.734375 C182.778223,9.43131359 182.679265,9.15608848 182.481348,8.90869141 C182.28343,8.66129434 182.026759,8.44482515 181.711328,8.25927734 C181.395897,8.07372954 181.048,7.88973073 180.667627,7.70727539 C180.287254,7.52482005 179.906887,7.32226674 179.526514,7.09960938 C179.146141,6.87695201 178.798244,6.62955865 178.482812,6.35742188 C178.167381,6.0852851 177.910711,5.7404806 177.712793,5.32299805 C177.514875,4.90551549 177.415918,4.43701432 177.415918,3.91748047 C177.415918,2.92789219 177.793193,2.08520856 178.547754,1.3894043 C179.302315,0.693600037 180.325905,0.345703125 181.618555,0.345703125 C182.84317,0.345703125 183.900777,0.568357148 184.791406,1.01367188 L184.791406,3.3515625 C183.690489,2.80728895 182.657622,2.53515625 181.692773,2.53515625 C181.247459,2.53515625 180.885646,2.62483634 180.607324,2.80419922 C180.329002,2.98356209 180.189844,3.27734171 180.189844,3.68554688 C180.189844,3.97005351 180.288801,4.22981653 180.486719,4.46484375 C180.684636,4.69987097 180.941307,4.9055167 181.256738,5.08178711 C181.57217,5.25805752 181.920066,5.43432529 182.300439,5.6105957 C182.680812,5.78686612 183.06118,5.98787322 183.441553,6.21362305 C183.821926,6.43937287 184.169823,6.69140486 184.485254,6.96972656 C184.800685,7.24804827 185.057356,7.60522243 185.255273,8.04125977 C185.453191,8.4772971 185.552148,8.96435278 185.552148,9.50244141 C185.552148,10.6219131 185.117664,11.5156217 184.248682,12.1835938 C183.379699,12.8515658 182.27416,13.1855469 180.932031,13.1855469 C180.18984,13.1855469 179.473945,13.0881357 178.784326,12.8933105 C178.094707,12.6984854 177.499417,12.4186216 176.998437,12.0537109 Z M176.998437,12.0537109" id="UNIVERSITY OF LEEDS " fill="rgb(254,255,254)"></path>
        </g>
    </g>
</svg>